<svg xmlns="http://www.w3.org/2000/svg" viewBox="0 0 24 24" fill="#26A5E4"><path d="M12 2C6.48 2 2 6.48 2 12s4.48 10 10 10 10-4.48 10-10S17.52 2 12 2zm4.64 6.8c-.15 1.58-.8 5.42-1.13 7.19-.14.75-.42 1-.68 1.03-.58.05-1.02-.38-1.58-.75-.88-.58-1.38-.94-2.23-1.5-.99-.65-.35-1.01.22-1.59.15-.15 2.71-2.48 2.76-2.69.01-.03.01-.14-.07-.2-.08-.06-.19-.04-.27-.02-.12.02-1.96 1.24-5.54 3.65-.52.36-.99.53-1.41.52-.46-.01-1.35-.26-2.01-.48-.81-.27-1.45-.42-1.39-.89.03-.24.36-.49 1-.74 3.92-1.7 6.54-2.83 7.84-3.39 3.73-1.59 4.51-1.87 5.01-1.88.11 0 .36.03.52.17.14.11.18.26.2.45.02.11.02.24.01.38z"/></svg>
