<svg xmlns="http://www.w3.org/2000/svg" viewBox="0 0 24 24" fill="#0077FF"><path d="M15.074 2H8.926C3.125 2 2 3.125 2 8.926v6.148C2 20.875 3.125 22 8.926 22h6.148c5.801 0 6.926-1.125 6.926-6.926V8.926C22 3.125 20.875 2 15.074 2zm3.325 13.916c.321.312.35.452.35.539 0 .23-.19.345-.345.345h-1.928c-.53 0-.847-.367-1.464-.984-.572-.56-1.144-.616-1.34-.616-.272 0-.488.077-.488.503v.784c0 .24-.132.313-.306.313h-.624c-1.396 0-3.324-1.2-4.524-2.884C6.39 12.043 5.483 9.475 5.483 9.288c0-.184.093-.288.337-.288h1.928c.203 0 .304.095.346.225.32 1.054.912 2.27 1.488 2.885.22.235.438.384.624.384.27 0 .344-.132.344-.456V10.15c0-.46-.112-.66-.454-.74-.188-.044-.244-.12-.244-.204 0-.14.168-.264.444-.264h2.532c.24 0 .312.112.312.348v2.66c0 .284.148.428.324.428.18 0 .4-.144.648-.384.8-.828 1.156-2.076 1.156-2.076.04-.156.148-.264.348-.264h1.932c.28 0 .34.128.272.292-.224.524-1.116 1.84-1.116 1.84s-.136.212-.048.332c.112.148.512.512.928.9.728.676 1.14 1.252 1.228 1.492z"/></svg>
